<svg id="Component_3_1" data-name="Component 3 – 1" xmlns="http://www.w3.org/2000/svg" width="32" height="32" viewBox="0 0 32 32">
  <path id="Icon_awesome-user-circle" data-name="Icon awesome-user-circle" d="M6.291.563a6.291,6.291,0,0,0,0,12.582,6.573,6.573,0,0,0,3.02-.77,6.171,6.171,0,0,0,3.271-5.521A6.29,6.29,0,0,0,6.291.563ZM6.291,3A2.232,2.232,0,1,1,4.059,5.23,2.232,2.232,0,0,1,6.291,3Zm0,8.726a4.861,4.861,0,0,1-3.716-1.73,2.828,2.828,0,0,1,2.5-1.517.621.621,0,0,1,.18.028,3.359,3.359,0,0,0,1.038.175A3.346,3.346,0,0,0,7.329,8.5a.621.621,0,0,1,.18-.028,2.828,2.828,0,0,1,2.5,1.517A4.861,4.861,0,0,1,6.291,11.724Z" transform="translate(10 -0.563)" fill="#fff"/>
  <text id="Profile" transform="translate(16 29)" fill="#fff" font-size="10" font-family="OpenSans-Regular, Open Sans" letter-spacing="0.02em"><tspan x="-15.6" y="0">Profile</tspan></text>
</svg>
